<?xml version="1.0" encoding="UTF-8" standalone="no"?>
<!-- Created with Inkscape (http://www.inkscape.org/) -->

<svg
   width="1024"
   height="1024"
   viewBox="0 0 270.93333 270.93334"
   version="1.1"
   id="svg3444"
   inkscape:version="1.1.2 (b8e25be8, 2022-02-05)"
   sodipodi:docname="ship.svg"
   xmlns:inkscape="http://www.inkscape.org/namespaces/inkscape"
   xmlns:sodipodi="http://sodipodi.sourceforge.net/DTD/sodipodi-0.dtd"
   xmlns="http://www.w3.org/2000/svg"
   xmlns:svg="http://www.w3.org/2000/svg">
  <sodipodi:namedview
     id="namedview3446"
     pagecolor="#ffffff"
     bordercolor="#111111"
     borderopacity="1"
     inkscape:pageshadow="0"
     inkscape:pageopacity="0"
     inkscape:pagecheckerboard="1"
     inkscape:document-units="px"
     showgrid="false"
     units="px"
     inkscape:zoom="0.51855469"
     inkscape:cx="512"
     inkscape:cy="512"
     inkscape:window-width="1312"
     inkscape:window-height="753"
     inkscape:window-x="0"
     inkscape:window-y="25"
     inkscape:window-maximized="0"
     inkscape:current-layer="layer1" />
  <defs
     id="defs3441" />
  <g
     inkscape:label="Layer 1"
     inkscape:groupmode="layer"
     id="layer1">
    <path
       style="fill:none;stroke:#000000;stroke-width:7.9375;stroke-linecap:round;stroke-linejoin:round;stroke-miterlimit:4;stroke-dasharray:none;stroke-opacity:1"
       d="M 3.96875,266.96458 H 266.96458"
       id="path854"
       sodipodi:nodetypes="cc" />
    <path
       id="path856"
       style="fill:#787878;stroke:#000000;stroke-width:30;stroke-linecap:round;stroke-linejoin:round;stroke-miterlimit:4;stroke-dasharray:none;stroke-opacity:1;fill-opacity:1"
       d="M 64 688 L 256 1009 L 768 1009 L 960 688 L 64 688 z M 348 784 A 47.999995 47.999995 0 0 1 396 832 A 47.999995 47.999995 0 0 1 348 880 A 47.999995 47.999995 0 0 1 300 832 A 47.999995 47.999995 0 0 1 348 784 z M 528 784 A 47.999998 47.999998 0 0 1 576 832 A 47.999998 47.999998 0 0 1 528 880 A 47.999998 47.999998 0 0 1 480 832 A 47.999998 47.999998 0 0 1 528 784 z M 708 784 A 47.999997 47.999997 0 0 1 756 832 A 47.999997 47.999997 0 0 1 708 880 A 47.999997 47.999997 0 0 1 660 832 A 47.999997 47.999997 0 0 1 708 784 z "
       transform="scale(0.26458333)" />
    <path
       style="fill:#969696;stroke:#000000;stroke-width:7.9375;stroke-linecap:round;stroke-linejoin:round;stroke-miterlimit:4;stroke-dasharray:none;stroke-opacity:1;fill-opacity:1"
       d="M 67.733334,182.03333 84.666667,152.4 H 203.2 l 16.93333,29.63333 z"
       id="path858"
       sodipodi:nodetypes="ccccc" />
    <path
       id="path860"
       style="fill:#c8c8c8;stroke:#000000;stroke-width:30;stroke-linecap:round;stroke-linejoin:round;stroke-miterlimit:4;stroke-dasharray:none;stroke-opacity:1;fill-opacity:1"
       d="M 384 416 L 384 576 L 544 576 L 544 416 L 384 416 z M 464 464 A 31.999998 31.999998 0 0 1 496 496 A 31.999998 31.999998 0 0 1 464 528 A 31.999998 31.999998 0 0 1 432 496 A 31.999998 31.999998 0 0 1 464 464 z "
       transform="scale(0.26458333)" />
    <path
       style="fill:#c8c8c8;stroke:#000000;stroke-width:7.9375;stroke-linecap:round;stroke-linejoin:round;stroke-miterlimit:4;stroke-dasharray:none;stroke-opacity:1;fill-opacity:1"
       d="M 169.33333,152.4 V 93.133334 h 25.4 V 152.4 Z"
       id="path862"
       sodipodi:nodetypes="ccccc" />
  </g>
</svg>
