<?xml version="1.0" encoding="UTF-8" standalone="no"?>
<!-- Created with Inkscape (http://www.inkscape.org/) -->

<svg
   width="1024"
   height="1024"
   viewBox="0 0 270.93333 270.93334"
   version="1.1"
   id="svg3444"
   inkscape:version="1.1.2 (b8e25be8, 2022-02-05)"
   sodipodi:docname="palms.svg"
   inkscape:export-filename="/Users/solarlego/Desktop/palms.png"
   inkscape:export-xdpi="48"
   inkscape:export-ydpi="48"
   xmlns:inkscape="http://www.inkscape.org/namespaces/inkscape"
   xmlns:sodipodi="http://sodipodi.sourceforge.net/DTD/sodipodi-0.dtd"
   xmlns="http://www.w3.org/2000/svg"
   xmlns:svg="http://www.w3.org/2000/svg">
  <sodipodi:namedview
     id="namedview3446"
     pagecolor="#ffffff"
     bordercolor="#111111"
     borderopacity="1"
     inkscape:pageshadow="0"
     inkscape:pageopacity="0"
     inkscape:pagecheckerboard="1"
     inkscape:document-units="px"
     showgrid="false"
     units="px"
     inkscape:zoom="0.5566441"
     inkscape:cx="475.16896"
     inkscape:cy="361.99072"
     inkscape:window-width="1312"
     inkscape:window-height="753"
     inkscape:window-x="0"
     inkscape:window-y="25"
     inkscape:window-maximized="0"
     inkscape:current-layer="layer1"
     objecttolerance="1" />
  <defs
     id="defs3441" />
  <g
     inkscape:label="Layer 1"
     inkscape:groupmode="layer"
     id="layer1">
    <path
       style="fill:#cd6451;fill-opacity:1;stroke:#000000;stroke-width:2.64583;stroke-linecap:round;stroke-linejoin:round;stroke-miterlimit:4;stroke-dasharray:none;stroke-opacity:1"
       d="m 41.670837,241.27027 c 0.636156,-5.58205 2.701733,-6.94018 2.82755,-12.36808 0.271345,-10.88719 0.461951,-12.05814 0.684589,-18.44195 0.01898,-0.54394 9.845028,-4.49107 9.862573,-5.02177 0.0179,-0.54143 -10.146625,2.3338 -10.130401,1.80297 0.08226,-2.69004 0.640486,-11.49616 0.666015,-14.16652 0.0068,-0.71894 8.630947,-3.6285 8.632635,-4.36542 0.0012,-0.52998 -8.618654,1.118 -8.620324,0.57507 0.607995,-4.54953 0.801496,-9.1216 0.72301,-13.67877 -0.0059,-0.34593 6.422543,-2.76055 6.413516,-3.1063 -0.02024,-0.77524 -6.484086,0.5188 -6.518764,-0.25523 -0.636454,-14.20627 -3.584933,-28.17708 -4.500894,-40.77072 -4.373703,6.76441 -8.284002,7.27914 -12.39968,25.93729 -2.788827,-14.48726 -2.816098,-24.57264 3.72368,-32.61319 -9.145415,2.30662 -14.52007,5.53887 -24.0917161,11.0109 6.3241721,-11.92364 13.3908311,-16.28393 23.4243261,-19.02198 -9.743144,-6.15396 -18.728078,-6.74909 -31.0443594,-4.88611 8.9942024,-7.38871 19.7540844,-10.346 35.8477974,-4.335 C 36.469034,102.31625 17.353387,92.984481 9.4524623,88.136316 14.261403,87.418543 30.104529,88.28604 42.367351,98.04415 43.367244,85.814362 47.832672,77.813852 54.686212,72.40856 c -1.956316,13.118986 -2.486261,17.131985 -1.980738,24.700829 10.385268,-7.508514 19.478948,-9.181795 28.925543,-4.035995 -10.13126,2.095064 -15.450685,0.143062 -22.656511,11.762456 14.336872,-5.057678 24.218193,-1.41541 33.093666,7.8051 -11.024287,-0.44399 -19.975718,-4.67946 -28.942127,-0.99619 13.47037,9.55602 14.347762,9.66604 20.826617,23.48522 -10.269121,-7.91586 -15.973402,-11.11522 -23.356241,-12.91025 9.441977,9.46255 9.240489,14.17904 11.392994,29.39038 -5.908479,-12.18348 -9.739389,-15.4405 -17.620151,-19.40038 -0.599209,16.20179 2.305788,38.78103 4.025685,54.67378 2.17428,12.56325 -0.01046,46.45873 8.569873,49.53816 6.415346,0.64567 8.278509,-2.14281 14.074001,-2.86497 9.508135,-1.18488 2.234078,-7.44409 23.274567,-8.40957 2.74815,-18.06385 4.04055,-29.28589 4.48162,-47.11018 0.0121,-0.48822 9.79629,-6.10054 9.80711,-6.59894 0.0104,-0.47952 -9.75255,4.09783 -9.74329,3.5063 0.076,-4.85502 0.11336,-13.06052 0.11908,-17.68321 5.8e-4,-0.47087 9.15312,-5.2481 9.15305,-5.6373 -8e-5,-0.48681 -9.15298,3.35641 -9.15409,2.8452 -0.0115,-5.27581 -0.0769,-11.71395 -0.18117,-16.47542 -0.013,-0.59232 8.13804,-5.02059 8.12395,-5.6085 -0.013,-0.54152 -8.19123,2.75698 -8.20522,2.21933 -0.12901,-4.9487 -0.29806,-13.26523 -0.49084,-17.83665 -0.0262,-0.62122 7.5296,-4.53101 7.50289,-5.13724 -0.031,-0.70572 -7.79212,3.28543 -7.82361,2.60077 -0.16732,-3.63813 -0.63534,-12.94885 -0.8021,-15.92074 -0.0461,-0.821234 8.02101,-4.149993 7.97612,-4.914465 -0.0482,-0.820361 -8.20828,2.108918 -8.25459,1.356966 -0.33614,-5.462602 -0.61355,-10.259457 -0.71686,-11.424645 -1.01632,-7.868203 1.93566,-17.260717 -2.61572,-16.169481 C 95.827122,68.996107 94.942007,88.188504 85.113881,98.493002 85.575313,86.365298 86.625601,63.519598 93.2802,59.136948 82.130393,55.966558 73.206165,71.083558 61.034799,82.749061 64.799869,69.803036 78.118965,46.785429 88.818447,47.873705 81.608489,41.619701 62.312549,50.372694 47.264549,53.368366 61.954022,38.940111 83.244101,31.690607 92.874473,37.6208 92.166163,32.966443 70.133457,21.829848 63.727498,15.505026 c 5.359577,-0.06031 29.620723,5.708905 35.84664,14.24927 2.720242,-8.827528 0.576702,-16.949132 -3.156109,-28.4315908 8.751221,6.271773 13.115351,27.1261218 13.879671,28.2862628 3.35754,-10.581522 29.03819,-16.407455 38.17618,-12.618298 -6.22269,-0.612824 -27.8142,10.886204 -28.64007,16.795383 5.88464,-2.71384 32.92767,0.858617 38.09734,9.170193 -9.36814,-2.813491 -26.15352,-4.090715 -31.62803,2.635113 11.36288,1.129483 22.25287,10.323655 28.66492,22.477747 -8.23709,-4.035499 -21.42656,-13.032624 -26.97635,-7.477427 8.66317,4.656735 10.98876,21.655327 13.25756,31.340393 -6.08609,-7.246098 -19.26508,-24.808454 -23.50056,-22.763298 2.07442,42.291046 7.10305,149.157156 10.54141,155.051666 15.15058,-5.86466 7.09807,3.91112 21.48295,2.08902 2.95989,-0.37492 4.55783,-13.8051 5.36931,-29.45075 0.0337,-0.65009 6.38256,-3.71917 6.4136,-4.37613 0.0217,-0.45903 -6.27374,1.4956 -6.25331,1.03387 0.22154,-5.0099 0.36907,-10.16374 0.4606,-15.12266 0.009,-0.46702 6.18367,-4.04075 6.19131,-4.50404 0.0155,-0.93841 -6.5095,2.35455 -6.49785,1.43499 0.15657,-12.36038 0.35004,-23.91922 0.14069,-26.73478 -4.53154,-2.94296 -9.82365,11.33496 -16.72958,18.42306 2.76833,-10.27476 8.09755,-24.75947 12.93219,-26.13297 -7.79713,-3.08878 -21.09991,1.67858 -26.96934,6.09761 2.61302,-7.2337 16.73355,-16.27481 26.38505,-13.85383 -2.3979,-3.75936 -13.0602,-7.62433 -22.77953,-11.16884 3.07319,-0.56675 20.90609,-0.13506 25.48426,6.50071 -0.1716,-8.16941 2.67297,-16.67845 1.1378,-21.97496 5.8943,5.19889 6.01751,19.24554 8.07401,20.92867 2.71591,-6.47311 16.79116,-9.4136 22.23639,-7.76357 -5.18385,3.05995 -13.28198,7.21948 -16.9482,11.90304 7.898,0.84198 16.61914,2.88923 21.52402,10.10941 -6.47869,-2.54834 -15.77706,-3.36004 -21.35749,-2.01262 6.55395,3.30748 13.09526,18.33461 13.93276,24.58173 -3.30439,-4.6514 -12.18192,-16.13774 -15.75623,-16.10979 -1.14568,6.47073 -2.94713,53.15653 0.0713,77.1881 17.0107,6.67277 12.95912,-4.32135 27.86254,4.18501 2.78954,-3.00467 4.70704,-19.17763 5.85904,-46.31386 0.0232,-0.54606 9.96581,-6.05648 9.98836,-6.61141 0.0239,-0.58675 -9.86991,3.74906 -9.84237,3.09566 0.19646,-4.66116 0.47197,-10.81072 0.61837,-15.48896 0.0174,-0.55542 9.33271,-5.63672 9.34611,-6.1457 0.0153,-0.57965 -9.26969,3.3224 -9.25529,2.62788 0.0959,-4.62889 0.17276,-11.4766 0.22976,-16.10493 0.009,-0.74853 8.49103,-5.98563 8.49921,-6.59929 0.009,-0.68065 -8.45561,3.17 -8.44783,2.46387 0.0464,-4.20601 0.0698,-8.77246 0.0693,-12.60837 -9e-5,-0.83145 7.23217,-4.34369 7.22923,-5.16291 -0.002,-0.5557 -7.23706,2.40485 -7.23901,1.8552 -0.0876,-18.35867 -1.5303,-36.342454 -2.88646,-41.482192 -8.11924,2.580989 -6.56178,9.863393 -15.43488,22.074952 2.21081,-15.532122 1.13572,-23.235938 9.9283,-31.90813 -8.7036,-2.904598 -17.27711,3.384308 -30.0839,13.901281 6.6665,-16.145372 16.57708,-20.927989 28.10371,-20.688652 -6.8576,-9.013043 -15.49566,-9.820684 -28.07848,-7.814714 11.08637,-7.992977 23.66834,-7.90914 33.73104,-1.482551 -2.15688,-9.573482 -4.85662,-13.288021 -13.58076,-20.596013 11.60041,1.6782 16.731,6.015622 20.95035,16.313401 2.86729,-10.336812 15.72658,-18.548478 25.78015,-15.342946 -10.00051,1.315342 -17.84838,15.542259 -15.41305,18.55946 7.33012,-5.936576 23.10942,-4.402432 30.59057,-0.435626 -9.72259,-2.609788 -20.7946,1.518379 -26.52662,7.609067 11.01291,1.580176 22.66681,4.76202 28.40491,16.578272 -7.30427,-5.358896 -19.93506,-9.761346 -28.25274,-7.156517 6.88712,3.337516 12.28683,17.585083 13.09493,27.581818 -6.0106,-11.837189 -14.39993,-26.094493 -19.15921,-18.748341 -1.00724,7.819986 0.21867,25.302071 -0.1781,34.051981 -0.43335,9.75343 0.78768,19.58886 1.27373,29.3129 1.75857,32.10592 0.59174,76.6947 6.74991,88.32073 21.02127,-2.33379 17.80704,2.71471 25.89368,4.7556 11.32619,2.85845 21.61837,10.91798 11.11698,19.07974 -13.47349,6.7456 -13.24624,-3.4662 -26.57263,2.29525 -6.89367,-0.38283 -11.42821,3.62395 -21.62405,4.58307 -7.6016,0.71507 -7.46546,-1.05162 -24.92116,-2.15173 -19.65512,-3.17008 -16.12429,3.26932 -31.64985,1.79725 -9.90478,-0.93914 -17.07194,2.59476 -23.93197,5.65487 -18.60655,1.73909 -23.50642,-1.97064 -30.247103,-3.19466 -7.004026,-4.9466 -25.987216,-0.65248 -34.126935,1.36385 -9.74384,5.04212 -30.945398,-0.75718 -45.805965,-2.3818 -9.7451293,-1.06537 -12.9494974,-3.86043 -15.5205019,-11.38589 -0.074153,-9.17717 9.4114189,-6.44887 22.2912279,-12.71434 8.919025,-2.69155 10.959596,3.05276 16.003582,0.42298 z"
       id="path866"
       sodipodi:nodetypes="ccssssscssscccccccccccccccccccccscssssssssssssssscscccccccccccccccccccssssssscccccccccccccccccssssssssssssccccccccccccccccccccsccscscccscccc" />
  </g>
</svg>
