<?xml version="1.0" encoding="UTF-8" standalone="no"?>
<!-- Created with Inkscape (http://www.inkscape.org/) -->

<svg
   width="1024"
   height="1024"
   viewBox="0 0 270.93333 270.93334"
   version="1.1"
   id="svg3444"
   inkscape:version="1.1.2 (b8e25be8, 2022-02-05)"
   sodipodi:docname="coal.svg"
   inkscape:export-filename="/Users/solarlego/Desktop/* coal.png"
   inkscape:export-xdpi="96"
   inkscape:export-ydpi="96"
   xmlns:inkscape="http://www.inkscape.org/namespaces/inkscape"
   xmlns:sodipodi="http://sodipodi.sourceforge.net/DTD/sodipodi-0.dtd"
   xmlns:xlink="http://www.w3.org/1999/xlink"
   xmlns="http://www.w3.org/2000/svg"
   xmlns:svg="http://www.w3.org/2000/svg">
  <sodipodi:namedview
     id="namedview3446"
     pagecolor="#ffffff"
     bordercolor="#111111"
     borderopacity="1"
     inkscape:pageshadow="0"
     inkscape:pageopacity="0"
     inkscape:pagecheckerboard="1"
     inkscape:document-units="px"
     showgrid="false"
     units="px"
     inkscape:zoom="0.59108038"
     inkscape:cx="486.39747"
     inkscape:cy="584.52287"
     inkscape:window-width="1312"
     inkscape:window-height="753"
     inkscape:window-x="0"
     inkscape:window-y="25"
     inkscape:window-maximized="0"
     inkscape:current-layer="layer1" />
  <defs
     id="defs3441">
    <linearGradient
       inkscape:collect="always"
       id="linearGradient10410">
      <stop
         style="stop-color:#3c3c3c;stop-opacity:1"
         offset="0"
         id="stop10406" />
      <stop
         style="stop-color:#656565;stop-opacity:1"
         offset="1"
         id="stop10408" />
    </linearGradient>
    <marker
       style="overflow:visible"
       id="Arrow1Lstart"
       refX="0.0"
       refY="0.0"
       orient="auto"
       inkscape:stockid="Arrow1Lstart"
       inkscape:isstock="true">
      <path
         transform="scale(0.8) translate(12.5,0)"
         style="fill-rule:evenodd;fill:context-stroke;stroke:context-stroke;stroke-width:1.0pt"
         d="M 0.0,0.0 L 5.0,-5.0 L -12.5,0.0 L 5.0,5.0 L 0.0,0.0 z "
         id="path1078" />
    </marker>
    <linearGradient
       inkscape:collect="always"
       xlink:href="#linearGradient10410"
       id="linearGradient5392"
       x1="58.196293"
       y1="198.39571"
       x2="93.940048"
       y2="101.70834"
       gradientUnits="userSpaceOnUse" />
    <linearGradient
       inkscape:collect="always"
       xlink:href="#linearGradient10410"
       id="linearGradient5958"
       x1="198.43726"
       y1="186.98346"
       x2="220.35396"
       y2="112.63911"
       gradientUnits="userSpaceOnUse" />
    <linearGradient
       inkscape:collect="always"
       xlink:href="#linearGradient10410"
       id="linearGradient5966"
       x1="213.63205"
       y1="114.5506"
       x2="219.68073"
       y2="46.511349"
       gradientUnits="userSpaceOnUse" />
    <linearGradient
       inkscape:collect="always"
       xlink:href="#linearGradient10410"
       id="linearGradient5974"
       x1="92.574051"
       y1="99.892952"
       x2="111.64488"
       y2="41.253868"
       gradientUnits="userSpaceOnUse" />
    <linearGradient
       inkscape:collect="always"
       xlink:href="#linearGradient10410"
       id="linearGradient5982"
       x1="20.910608"
       y1="109.0655"
       x2="48.706635"
       y2="65.873329"
       gradientUnits="userSpaceOnUse" />
  </defs>
  <g
     inkscape:label="Layer 1"
     inkscape:groupmode="layer"
     id="layer1">
    <g
       id="g11669"
       style="stroke-width:8.01768;stroke-miterlimit:4;stroke-dasharray:none"
       transform="matrix(0.99004953,0,0,0.98994938,1.347465,1.4747488)">
      <path
         style="fill:url(#linearGradient5966);fill-opacity:1;stroke:#000000;stroke-width:8.01768;stroke-linecap:round;stroke-linejoin:round;stroke-miterlimit:4;stroke-dasharray:none;stroke-opacity:1"
         d="m 126.75254,85.393322 c 38.51222,-22.222554 56.44097,-71.155326 124.67358,-18.516999 2.48333,1.915778 7.04565,17.162378 5.14315,19.650287 -0.43096,0.563565 -3.71314,10.893201 -5.7767,10.893201"
         id="path3435"
         sodipodi:nodetypes="cssc" />
      <path
         style="fill:url(#linearGradient5982);fill-opacity:1;stroke:#000000;stroke-width:8.01768;stroke-linecap:round;stroke-linejoin:round;stroke-miterlimit:4;stroke-dasharray:none;stroke-opacity:1"
         d="m 19.842594,156.41595 c -4.732016,-36.85043 -13.6950781,-24.92449 5.050192,-74.2013 3.153916,-8.290888 37.015639,-14.498 42.362845,-9.717488"
         id="path3433"
         sodipodi:nodetypes="csc" />
      <path
         style="fill:url(#linearGradient5974);fill-opacity:1;stroke:#000000;stroke-width:8.01768;stroke-linecap:round;stroke-linejoin:round;stroke-miterlimit:4;stroke-dasharray:none;stroke-opacity:1"
         d="M 43.245642,146.71628 C 41.101487,129.33182 52.847487,58.697762 68.657111,53.345512 105.05833,41.022103 112.20452,32.796081 132.03213,38.123344 c 7.34111,1.972407 13.87881,6.529123 19.80469,11.27568 5.57987,4.46941 0,0 10.8946,7.19889 6.76978,4.473308 5.90477,43.384322 8.93535,50.933146"
         id="path3431"
         sodipodi:nodetypes="cssssc" />
      <path
         style="fill:url(#linearGradient5958);fill-opacity:1;stroke:#000000;stroke-width:8.01768;stroke-linecap:round;stroke-linejoin:round;stroke-miterlimit:4;stroke-dasharray:none;stroke-opacity:1"
         d="m 119.16742,125.24463 c 7.0353,-22.98421 31.84792,-25.901201 48.99713,-34.236534 19.13011,-9.298141 31.35135,-22.44556 52.69897,-18.271122 9.29149,1.81691 29.02292,19.647956 35.88776,26.145754 5.70044,5.395662 11.78765,37.957072 11.51601,41.610812 -2.56853,34.54864 5.50048,46.23544 -22.93585,57.23408 -13.58832,5.25571 -18.55088,9.10205 -31.64473,12.81689 -9.46662,2.68576 -30.18695,4.25936 -44.08723,1.8504 -6.32164,-1.09556 -24.40204,-10.90576 -30.96733,-10.90576"
         id="path2888"
         sodipodi:nodetypes="csssssssc" />
      <path
         style="fill:url(#linearGradient5392);fill-opacity:1;stroke:#000000;stroke-width:8.01768;stroke-linecap:round;stroke-linejoin:round;stroke-miterlimit:4;stroke-dasharray:none;stroke-opacity:1"
         d="m 10.129458,210.34182 c -12.0725127,-29.64972 -11.9456241,-72.6374 18.704669,-88.68369 8.476921,-4.7679 16.978498,-9.5169 25.154555,-14.78062 21.056568,-17.040616 37.525364,-4.86282 47.084168,3.85581 12.68611,10.4246 24.56117,21.79241 36.76435,32.77442 9.89182,8.90195 4.25657,12.01494 8.00437,31.87915 3.49968,18.54912 1.04313,31.7605 -12.28327,46.26975 -30.17136,9.71153 -83.572479,17.80919 -103.434197,7.96424 C 13.26337,219.24489 19.378226,224.58323 10.129458,210.34182"
         id="path1492"
         sodipodi:nodetypes="ccccssccc" />
      <path
         style="fill:none;stroke:#000000;stroke-width:8.01768;stroke-linecap:round;stroke-linejoin:round;stroke-miterlimit:4;stroke-dasharray:none;stroke-opacity:1"
         d="m 49.686559,134.73562 c 15.534826,-4.1864 9.468606,-3.02212 25.514717,-1.34288 14.155653,1.48141 22.792314,0.56804 29.990984,12.08592"
         id="path6762"
         sodipodi:nodetypes="csc" />
      <path
         style="fill:none;stroke:#000000;stroke-width:8.01768;stroke-linecap:round;stroke-linejoin:round;stroke-miterlimit:4;stroke-dasharray:none;stroke-opacity:1"
         d="m 151.29781,98.925487 c 32.39266,27.297193 27.09625,42.168663 38.86449,47.404283 9.27864,4.12802 32.38335,-0.44383 70.80404,8.99668 5.5771,1.37037 2.98294,0 0,0"
         id="path6764"
         sodipodi:nodetypes="cssc" />
      <path
         style="fill:none;stroke:#000000;stroke-width:8.01768;stroke-linecap:round;stroke-linejoin:round;stroke-miterlimit:4;stroke-dasharray:none;stroke-opacity:1"
         d="m 7.6096531,150.85018 c 26.2170139,21.93669 27.4206639,6.67457 48.7913059,40.73402 2.348499,3.74293 21.280821,11.71665 25.514719,12.98118 11.69722,3.49359 62.983252,-10.23826 62.983252,-10.23826"
         id="path6766"
         sodipodi:nodetypes="cssc" />
      <path
         style="fill:none;stroke:#000000;stroke-width:8.01768;stroke-linecap:round;stroke-linejoin:round;stroke-miterlimit:4;stroke-dasharray:none;stroke-opacity:1"
         d="m 86.391942,47.448424 c 4.55781,8.878107 17.908498,18.767537 20.427618,30.574564 2.07906,9.744455 -6.21702,21.223251 -6.55119,30.750292"
         id="path6768"
         sodipodi:nodetypes="csc" />
      <path
         style="fill:none;stroke:#000000;stroke-width:8.01768;stroke-linecap:round;stroke-linejoin:round;stroke-miterlimit:4;stroke-dasharray:none;stroke-opacity:1"
         d="m 124.44021,59.981972 c 8.5049,2.238132 17.00981,4.476266 25.51472,6.714398"
         id="path6770" />
      <path
         style="fill:none;stroke:#000000;stroke-width:8.01768;stroke-linecap:round;stroke-linejoin:round;stroke-miterlimit:4;stroke-dasharray:none;stroke-opacity:1"
         d="m 181.73642,68.039252 c 13.47635,-10.305447 4.44854,-5.36756 29.54336,-8.952534"
         id="path6772" />
      <path
         style="fill:none;stroke:#000000;stroke-width:8.01768;stroke-linecap:round;stroke-linejoin:round;stroke-miterlimit:4;stroke-dasharray:none;stroke-opacity:1"
         d="m 166.06949,179.05066 c 14.33463,7.43836 20.52724,6.21331 28.6481,4.47626 5.15387,-1.09657 12.02454,-1.98362 15.21931,-3.58101"
         id="path7024"
         sodipodi:nodetypes="ccc" />
      <path
         style="fill:none;stroke:#000000;stroke-width:8.01768;stroke-linecap:round;stroke-linejoin:round;stroke-miterlimit:4;stroke-dasharray:none;stroke-opacity:1"
         d="m 198.2986,103.84938 c 19.98917,-7.175592 11.28424,-6.609725 25.51472,-5.819145"
         id="path7026" />
    </g>
  </g>
</svg>
