<?xml version="1.0" encoding="UTF-8" standalone="no"?>
<!-- Created with Inkscape (http://www.inkscape.org/) -->

<svg
   width="1024"
   height="1024"
   viewBox="0 0 270.93333 270.93334"
   version="1.1"
   id="svg3444"
   inkscape:version="1.1.2 (b8e25be8, 2022-02-05)"
   sodipodi:docname="globe.svg"
   inkscape:export-filename="/Users/solarlego/Desktop/globe.png"
   inkscape:export-xdpi="96"
   inkscape:export-ydpi="96"
   xmlns:inkscape="http://www.inkscape.org/namespaces/inkscape"
   xmlns:sodipodi="http://sodipodi.sourceforge.net/DTD/sodipodi-0.dtd"
   xmlns="http://www.w3.org/2000/svg"
   xmlns:svg="http://www.w3.org/2000/svg">
  <sodipodi:namedview
     id="namedview3446"
     pagecolor="#ffffff"
     bordercolor="#111111"
     borderopacity="1"
     inkscape:pageshadow="0"
     inkscape:pageopacity="0"
     inkscape:pagecheckerboard="1"
     inkscape:document-units="px"
     showgrid="false"
     units="px"
     inkscape:zoom="0.44483708"
     inkscape:cx="443.98277"
     inkscape:cy="464.2149"
     inkscape:window-width="1312"
     inkscape:window-height="753"
     inkscape:window-x="0"
     inkscape:window-y="25"
     inkscape:window-maximized="0"
     inkscape:current-layer="layer1" />
  <defs
     id="defs3441" />
  <g
     inkscape:label="Layer 1"
     inkscape:groupmode="layer"
     id="layer1">
    <g
       id="g6480"
       transform="matrix(0.99003986,0,0,0.99003986,1.3492727,1.3492727)"
       style="stroke-width:1.01006">
      <circle
         style="fill:none;stroke:#000000;stroke-width:8.01735;stroke-linecap:round;stroke-linejoin:round;stroke-miterlimit:4;stroke-dasharray:none"
         id="path843"
         cx="135.46666"
         cy="135.46666"
         r="132.82083" />
      <path
         style="fill:#000000;fill-opacity:1;stroke:#000000;stroke-width:8.01735;stroke-linecap:butt;stroke-linejoin:miter;stroke-miterlimit:4;stroke-dasharray:none;stroke-opacity:1"
         d="m 46.515753,72.348824 c 2.410029,13.00028 -14.521885,7.871233 -9.841139,20.303578 6.46577,17.173478 6.902266,18.670488 13.508119,22.074468 17.515257,9.02557 9.895612,5.53601 27.746864,22.23527 3.700844,3.46202 2.753956,13.54333 1.324698,18.54574 -1.354204,4.73971 -7.11743,13.66419 -5.185066,23.32601 2.75256,13.7628 17.382666,11.7858 25.631346,20.03448 1.301405,1.30141 8.975985,42.35891 14.169765,35.08761 6.85641,-9.59896 13.18115,-16.10339 13.18115,-27.38575 0,-6.89414 0.88444,-16.5633 3.86593,-21.7809 3.28274,-8.84338 15.63229,-15.59515 12.73933,-21.56459 -5.06004,-10.12009 -27.91955,-8.9805 -36.87154,-13.07251 C 77.929597,136.96214 81.389714,119.84434 88.527159,106.49414 96.569491,91.275009 99.279375,94.016061 108.3433,101.68155 123.19881,114.52361 100.40277,85.843761 106.53242,72.052062 114.54327,54.02764 112.50947,48.184425 90.005134,39.758303 81.495554,36.572129 97.578149,20.115713 105.64296,13.533321 105.41031,-6.6417219 45.53654,42.971601 38.693764,48.871515 21.519506,68.871163 26.045597,57.940192 46.515753,72.348824 Z"
         id="path1134"
         sodipodi:nodetypes="cssssssssccsccssccc" />
      <path
         style="fill:#000000;fill-opacity:1;stroke:#000000;stroke-width:8.01735;stroke-linecap:butt;stroke-linejoin:miter;stroke-miterlimit:4;stroke-dasharray:none;stroke-opacity:1"
         d="m 216.0799,30.278573 c -1.52862,6.114473 -4.32705,24.252416 -6.02869,26.683331 -9.08554,17.757401 -46.05736,0.646911 -35.02519,16.222537 10.71202,13.995519 21.37565,17.706265 25.67151,23.248085 9.42777,12.162194 -21.13965,16.255264 -23.7637,25.439454 -1.09177,3.82118 0,7.94818 0,11.92226 0,2.20783 -0.63442,4.50877 0,6.62348 3.06962,10.23208 10.72859,10.66308 18.54573,14.57165 6.0913,3.04565 15.37072,9.37573 18.37177,15.37784 7.57212,15.14424 -3.79394,38.32662 12.2702,34.38522 5.27524,-1.2943 11.95369,-5.42547 14.34082,-10.59756 2.21292,-4.79468 3.15806,-15.37249 3.97408,-20.67663 2.22962,-14.4925 17.46108,-42.49476 5.41251,-54.54333 -4.81668,-4.81668 -16.02045,-1.887 -22.57669,-3.6864 -29.54866,-8.10982 -10.30737,-14.28711 32.92929,-5.73653 15.19298,3.0046 -36.16493,-77.086574 -44.12164,-79.233407"
         id="path1136"
         sodipodi:nodetypes="cccssssssssssssc" />
    </g>
  </g>
</svg>
