<?xml version="1.0" encoding="UTF-8" standalone="no"?>
<!-- Created with Inkscape (http://www.inkscape.org/) -->

<svg
   width="1024"
   height="1024"
   viewBox="0 0 270.93333 270.93334"
   version="1.1"
   id="svg3444"
   inkscape:version="1.1.2 (b8e25be8, 2022-02-05)"
   sodipodi:docname="chance.svg"
   inkscape:export-filename="/Users/solarlego/Desktop/* chance.png"
   inkscape:export-xdpi="96"
   inkscape:export-ydpi="96"
   xmlns:inkscape="http://www.inkscape.org/namespaces/inkscape"
   xmlns:sodipodi="http://sodipodi.sourceforge.net/DTD/sodipodi-0.dtd"
   xmlns="http://www.w3.org/2000/svg"
   xmlns:svg="http://www.w3.org/2000/svg">
  <sodipodi:namedview
     id="namedview3446"
     pagecolor="#ffffff"
     bordercolor="#111111"
     borderopacity="1"
     inkscape:pageshadow="0"
     inkscape:pageopacity="0"
     inkscape:pagecheckerboard="1"
     inkscape:document-units="px"
     showgrid="false"
     units="px"
     inkscape:zoom="0.38966091"
     inkscape:cx="612.07063"
     inkscape:cy="399.06492"
     inkscape:window-width="1312"
     inkscape:window-height="753"
     inkscape:window-x="0"
     inkscape:window-y="25"
     inkscape:window-maximized="0"
     inkscape:current-layer="layer1" />
  <defs
     id="defs3441" />
  <g
     inkscape:label="Layer 1"
     inkscape:groupmode="layer"
     id="layer1">
    <g
       id="g1170"
       transform="matrix(0.97978991,0,0,0.98027589,2.7063487,0.07828027)"
       style="stroke-width:1.02037">
      <path
         style="color:#000000;fill:#000000;fill-opacity:1;stroke:#000000;stroke-width:8.09922;stroke-linecap:round;stroke-linejoin:round;stroke-miterlimit:4;stroke-dasharray:none;stroke-opacity:1"
         d="m 136.29085,3.9881854 c -3.09862,-0.07157 -6.14883,0.055147 -9.11281,0.3715946 -23.7118,2.5315824 -43.909105,13.250882 -57.861634,29.979723 -9.299977,11.150904 -7.806285,27.734843 3.336312,37.041917 11.236642,6.301865 25.903964,3.611018 37.015842,-3.338664 0,0 15.83345,-10.503972 23.08705,-11.381033 8.93512,-0.953954 13.91975,-0.245763 20.16565,9.223509 0,0 4.65486,10.012735 -0.25387,18.708652 -4.90872,8.695917 -17.05987,20.452406 -32.16198,30.114326 -7.55281,4.83338 -12.12282,13.18583 -12.12326,22.15728 v 38.87145 c -2.1e-4,14.52507 11.76644,26.30001 26.28128,26.2998 14.5141,-8.3e-4 26.2796,-11.77548 26.27939,-26.2998 v -25.12055 c 14.89659,-10.94268 28.28501,-23.84717 37.48946,-40.15308 C 210.08675,89.817149 212.17652,60.236013 196.7897,36.908436 182.11937,14.667101 157.98125,4.4891727 136.29085,3.9881854 Z"
         id="path1100"
         sodipodi:nodetypes="ssccccssccccccsss" />
      <g
         id="path1577"
         style="fill:#000000;fill-opacity:1;stroke:#000000;stroke-width:8.34666;stroke-linecap:round;stroke-linejoin:round;stroke-miterlimit:4;stroke-dasharray:none;stroke-opacity:1"
         transform="matrix(0.97001262,0,0,0.97069615,4.0773735,9.260933)">
        <path
           style="color:#000000;fill:#000000;fill-opacity:1;stroke:#000000;stroke-width:8.34666;stroke-linecap:round;stroke-linejoin:round;stroke-miterlimit:4;stroke-dasharray:none;stroke-opacity:1"
           d="m 161.71545,243.84001 a 27.093332,27.093336 0 0 1 -27.09333,27.09334 27.093332,27.093336 0 0 1 -27.09334,-27.09334 27.093332,27.093336 0 0 1 27.09334,-27.09333 27.093332,27.093336 0 0 1 27.09333,27.09333 z"
           id="path1289" />
      </g>
    </g>
  </g>
</svg>
