<?xml version="1.0" encoding="UTF-8" standalone="no"?>
<!-- Created with Inkscape (http://www.inkscape.org/) -->

<svg
   width="1024"
   height="1024"
   viewBox="0 0 270.93333 270.93334"
   version="1.1"
   id="svg3444"
   inkscape:version="1.1.2 (b8e25be8, 2022-02-05)"
   sodipodi:docname="oasis.svg"
   inkscape:export-filename="/Users/solarlego/Desktop/* oasis.png"
   inkscape:export-xdpi="96"
   inkscape:export-ydpi="96"
   xmlns:inkscape="http://www.inkscape.org/namespaces/inkscape"
   xmlns:sodipodi="http://sodipodi.sourceforge.net/DTD/sodipodi-0.dtd"
   xmlns="http://www.w3.org/2000/svg"
   xmlns:svg="http://www.w3.org/2000/svg">
  <sodipodi:namedview
     id="namedview3446"
     pagecolor="#ffffff"
     bordercolor="#111111"
     borderopacity="1"
     inkscape:pageshadow="0"
     inkscape:pageopacity="0"
     inkscape:pagecheckerboard="1"
     inkscape:document-units="px"
     showgrid="false"
     units="px"
     inkscape:zoom="0.62342305"
     inkscape:cx="485.22428"
     inkscape:cy="405.02192"
     inkscape:window-width="1312"
     inkscape:window-height="753"
     inkscape:window-x="0"
     inkscape:window-y="25"
     inkscape:window-maximized="0"
     inkscape:current-layer="layer1" />
  <defs
     id="defs3441" />
  <g
     inkscape:label="Layer 1"
     inkscape:groupmode="layer"
     id="layer1">
    <path
       id="path7741"
       style="fill:#c99354;fill-opacity:1;stroke:#000000;stroke-width:30;stroke-linecap:round;stroke-linejoin:round;stroke-miterlimit:4;stroke-dasharray:none;stroke-opacity:1"
       d="M 635.49414 324.50391 L 481.55273 753.16992 L 575.31836 915.22266 L 743.19336 373.92188 C 711.90188 350.93111 675.977 334.69934 635.49414 324.50391 z "
       transform="scale(0.26458333)" />
    <path
       id="path7400"
       style="fill:#c99354;fill-opacity:1;stroke:#000000;stroke-width:30;stroke-linecap:round;stroke-linejoin:round;stroke-miterlimit:4;stroke-dasharray:none;stroke-opacity:1"
       d="M 347.33398 529.63477 C 310.27497 549.76912 278.34021 573.04631 251.48633 597.86719 L 421.97266 915.22266 L 575.31836 915.22266 L 347.33398 529.63477 z "
       transform="scale(0.26458333)" />
    <path
       id="path1182"
       style="fill:#4dc174;fill-opacity:1;stroke:#000000;stroke-width:30;stroke-linecap:round;stroke-linejoin:round;stroke-miterlimit:4;stroke-dasharray:none;stroke-opacity:1"
       d="M 139.86523 361.28516 C 99.727287 361.75283 56.679033 379.62535 16.90625 418.78711 C 83.971696 401.69745 137.06726 431.09572 172.55469 467.51562 C 189.7906 468.59471 209.12284 471.45557 230.80078 476.3125 L 241.05273 469.21484 C 246.34146 452.53001 251.6291 436.74764 257.10742 422.43164 C 228.06274 383.08572 185.87714 360.74904 139.86523 361.28516 z "
       transform="scale(0.26458333)" />
    <path
       id="path1182-5"
       style="fill:#4dc174;fill-opacity:1;stroke:#000000;stroke-width:30;stroke-linecap:round;stroke-linejoin:round;stroke-miterlimit:4;stroke-dasharray:none;stroke-opacity:1"
       d="M 858.95117 116.74023 C 809.91212 116.01319 761.74635 137.65934 725.41992 200.0957 C 731.71117 213.56838 737.21183 228.68085 741.91992 245.3457 L 747.44922 250.70508 C 768.36635 243.82241 788.64017 239.71379 807.90234 238.38672 C 854.0513 196.11161 936.60262 175.63118 1009.0039 175.54883 C 967.59205 145.25068 912.74738 117.53781 858.95117 116.74023 z "
       transform="scale(0.26458333)" />
    <path
       style="fill:none;stroke:#000000;stroke-width:7.9375;stroke-linecap:round;stroke-linejoin:round;stroke-miterlimit:4;stroke-dasharray:none;stroke-opacity:1"
       d="M 58.144173,242.15245 H 202.47835"
       id="path887"
       sodipodi:nodetypes="cc" />
    <path
       id="path1180-6"
       style="fill:#4dc174;fill-opacity:1;stroke:#000000;stroke-width:30;stroke-linecap:round;stroke-linejoin:round;stroke-miterlimit:4;stroke-dasharray:none;stroke-opacity:1"
       d="M 597.97656 109.03516 C 546.35035 108.9904 487.0225 135.8159 427.09961 185.08789 C 494.84946 177.37119 596.4458 179.25794 667.60156 230.92188 C 727.90361 235.86751 780.14665 263.49321 816.55859 317.02344 C 880.88772 351.04195 940.42072 419.75242 974.66211 469.3418 C 1001.6609 286.14431 887.61905 202.44925 743.80859 251.85938 C 717.99917 153.56849 664.35312 109.0927 597.97656 109.03516 z "
       transform="scale(0.26458333)" />
    <path
       style="fill:#4dc174;fill-opacity:1;stroke:#000000;stroke-width:7.9375;stroke-linecap:round;stroke-linejoin:round;stroke-miterlimit:4;stroke-dasharray:none;stroke-opacity:1"
       d="M 230.11565,152.95091 C 213.90484,93.328971 172.86193,75.905411 108.46042,84.304048 168.89126,41.418904 235.31096,53.573448 230.11565,152.95091 Z"
       id="path897-3"
       sodipodi:nodetypes="ccc" />
    <path
       id="path1180"
       style="fill:#4dc174;fill-opacity:1;stroke:#000000;stroke-width:30;stroke-linecap:round;stroke-linejoin:round;stroke-miterlimit:4;stroke-dasharray:none;stroke-opacity:1"
       d="M 361.49609 319.30469 C 295.77174 320.62666 267.91396 382.30417 238.2207 477.92578 C 5.9337656 422.29975 34.441671 588.56623 14.998047 712.57812 C 44.771517 637.15265 109.87991 574.7617 182.71094 540.24414 C 207.54268 505.07572 242.33132 482.03227 282.75391 468.75391 C 318.50642 410.68118 401.51661 363.07291 514.86328 378.72461 C 447.15181 336.81569 398.36585 318.5631 361.49609 319.30469 z "
       transform="scale(0.26458333)" />
    <path
       style="fill:#4dc174;fill-opacity:1;stroke:#000000;stroke-width:7.9375;stroke-linecap:round;stroke-linejoin:round;stroke-miterlimit:4;stroke-dasharray:none;stroke-opacity:1"
       d="M 39.303888,202.16479 C 45.094059,174.16266 76.739471,136.4225 134.70985,124.93707 84.166354,111.51344 27.248534,123.61138 39.303888,202.16479 Z"
       id="path897"
       sodipodi:nodetypes="ccc" />
    <path
       style="fill:none;stroke:#000000;stroke-width:7.9375;stroke-linecap:round;stroke-linejoin:round;stroke-miterlimit:4;stroke-dasharray:none;stroke-opacity:1"
       d="m 80.192152,181.46978 12.115041,-6.56183"
       id="path8322"
       sodipodi:nodetypes="cc" />
    <path
       style="fill:none;stroke:#000000;stroke-width:7.9375;stroke-linecap:round;stroke-linejoin:round;stroke-miterlimit:4;stroke-dasharray:none;stroke-opacity:1"
       d="m 123.05227,221.11755 -17.62045,9.31361"
       id="path8324"
       sodipodi:nodetypes="cc" />
    <path
       style="fill:none;stroke:#000000;stroke-width:7.9375;stroke-linecap:round;stroke-linejoin:round;stroke-miterlimit:4;stroke-dasharray:none;stroke-opacity:1"
       d="m 136.72902,178.44125 17.16296,7.06659"
       id="path8326"
       sodipodi:nodetypes="cc" />
    <path
       style="fill:none;stroke:#000000;stroke-width:7.9375;stroke-linecap:round;stroke-linejoin:round;stroke-miterlimit:4;stroke-dasharray:none;stroke-opacity:1"
       d="m 175.59809,159.76526 -15.65947,-6.04612"
       id="path8328"
       sodipodi:nodetypes="cc" />
    <path
       style="fill:none;stroke:#000000;stroke-width:7.9375;stroke-linecap:round;stroke-linejoin:round;stroke-miterlimit:4;stroke-dasharray:none;stroke-opacity:1"
       d="m 156.92075,120.89902 15.14379,6.05708"
       id="path8330"
       sodipodi:nodetypes="cc" />
    <path
       style="fill:none;stroke:#000000;stroke-width:7.9375;stroke-linecap:round;stroke-linejoin:round;stroke-miterlimit:4;stroke-dasharray:none;stroke-opacity:1"
       d="m 119.56604,189.54588 -15.14381,8.07611"
       id="path8656" />
    <path
       style="fill:none;stroke:#000000;stroke-width:7.9375;stroke-linecap:round;stroke-linejoin:round;stroke-miterlimit:4;stroke-dasharray:none;stroke-opacity:1"
       d="m 230.11565,152.95091 c -5.41949,-21.4521 -8.19497,-42.9042 -27.7635,-64.356308"
       id="path9012"
       sodipodi:nodetypes="cc" />
    <path
       style="fill:none;stroke:#000000;stroke-width:7.9375;stroke-linecap:round;stroke-linejoin:round;stroke-miterlimit:4;stroke-dasharray:none;stroke-opacity:1"
       d="m 39.303886,202.16479 c 3.399502,-23.51544 9.310354,-43.4435 22.084712,-53.56727"
       id="path9014"
       sodipodi:nodetypes="cc" />
  </g>
</svg>
